<svg width="105" height="60" viewBox="0 0 105 60" fill="none" xmlns="http://www.w3.org/2000/svg">
<path d="M0.608032 9.65654C4.57321 9.54325 8.08523 8.75022 10.9741 7.16414V40.9815H15.5058V1.32966H11.7672C8.59504 3.76542 5.02638 5.12491 0.608032 5.2382V9.65654Z" fill="#F9F5F2"/>
<path d="M22.3572 27.5565C22.3572 35.7701 28.5882 41.8312 37.255 41.8312C45.8084 41.8312 52.0961 35.9967 52.0961 27.5565C52.0961 19.173 45.8084 13.2252 37.255 13.2252C36.292 13.2252 35.3857 13.2819 34.536 13.4518L43.0895 1.32966H37.7081L25.5294 18.3799C23.4335 21.3822 22.3572 24.3844 22.3572 27.5565ZM26.8889 27.5565C26.8889 21.7787 31.2506 17.5303 37.255 17.5303C43.2594 17.5303 47.5645 21.6654 47.5645 27.5565C47.5645 33.5043 43.316 37.5261 37.255 37.5261C31.3072 37.5261 26.8889 33.2777 26.8889 27.5565Z" fill="#F9F5F2"/>
<path d="M53.4919 9.65654C57.4571 9.54325 60.9691 8.75022 63.858 7.16414V40.9815H68.3896V1.32966H64.651C61.4789 3.76542 57.9102 5.12491 53.4919 5.2382V9.65654Z" fill="#F9F5F2"/>
<path d="M75.2411 30.5021C75.2411 36.9596 81.4154 41.8312 89.8556 41.8312C98.2958 41.8312 104.583 37.2429 104.583 30.5021C104.583 26.0837 101.355 22.6284 97.1629 20.7591C100.562 18.7765 102.941 15.491 102.941 11.4692C102.941 4.89833 97.3328 0.47998 89.8556 0.47998C82.3784 0.47998 76.8838 5.18155 76.8838 11.4692C76.8838 15.3211 79.3195 18.7198 82.8316 20.7591C78.5831 22.685 75.2411 26.2537 75.2411 30.5021ZM81.0189 11.8091C81.0189 7.67395 84.7575 4.55845 89.799 4.55845C95.1236 4.55845 98.7489 7.56066 98.7489 11.8091C98.7489 15.9442 94.7837 19.173 89.799 19.173C85.0974 19.173 81.0189 15.7743 81.0189 11.8091ZM79.7727 30.2188C79.7727 26.197 84.4743 22.6284 89.8556 22.6284C95.4068 22.6284 100.052 26.0271 100.052 30.2188C100.052 34.5805 95.9166 37.696 89.8556 37.696C84.0778 37.696 79.7727 34.5805 79.7727 30.2188Z" fill="#F9F5F2"/>
<path d="M49.0186 54.479L16.713 54.479" stroke="#F9F5F2" stroke-width="3"/>
<path d="M65.0219 59.7534H66.5836L63.6082 55.7096C65.0712 55.0849 66.1397 53.737 66.1397 52.1589C66.1397 49.8904 64.2 48.2466 61.7671 48.2466H57V59.7534H58.3151V56.0877H61.7671C61.9479 56.0877 62.1452 56.0712 62.326 56.0548L65.0219 59.7534ZM64.8247 52.1589C64.8247 53.6712 63.4603 54.8548 61.7671 54.8548H58.3151V49.4795H61.7671C63.526 49.4795 64.8247 50.6137 64.8247 52.1589Z" fill="#F9F5F2"/>
<path d="M67.1646 54.0164C67.1646 57.4356 69.581 60 72.7865 60C76.0741 60 78.4413 57.5342 78.4413 54.0164C78.4413 50.4658 76.0741 48 72.7865 48C69.5646 48 67.1646 50.5479 67.1646 54.0164ZM68.4796 54C68.4796 51.2548 70.2878 49.2493 72.7865 49.2493C75.3673 49.2493 77.1262 51.189 77.1262 54C77.1262 56.7945 75.3509 58.7507 72.7865 58.7507C70.3043 58.7507 68.4796 56.7288 68.4796 54Z" fill="#F9F5F2"/>
<path d="M79.7823 54.0164C79.7823 57.4356 82.1987 60 85.4042 60C88.6919 60 91.059 57.5342 91.059 54.0164C91.059 50.4658 88.6919 48 85.4042 48C82.1823 48 79.7823 50.5479 79.7823 54.0164ZM81.0973 54C81.0973 51.2548 82.9056 49.2493 85.4042 49.2493C87.985 49.2493 89.7439 51.189 89.7439 54C89.7439 56.7945 87.9686 58.7507 85.4042 58.7507C82.922 58.7507 81.0973 56.7288 81.0973 54Z" fill="#F9F5F2"/>
<path d="M94.2575 50.4822L98.2027 59.7534H99.4027L103.332 50.5151V59.7534H104.647V48.2466H103.003L98.811 58.3068L94.6027 48.2466H92.9425V59.7534H94.2575V50.4822Z" fill="#F9F5F2"/>
</svg>
