<svg width="246" height="63" viewBox="0 0 246 63" fill="none" xmlns="http://www.w3.org/2000/svg">
<path d="M42.2371 60.8035H50.2676L34.9675 40.0087C42.4907 36.7965 47.9853 29.865 47.9853 21.75C47.9853 10.0846 38.0106 1.63149 25.4999 1.63149H0.98584V60.8035H7.74835V41.953H25.4999C26.4298 41.953 27.4442 41.8684 28.374 41.7839L42.2371 60.8035ZM41.2228 21.75C41.2228 29.5268 34.2067 35.6131 25.4999 35.6131H7.74835V7.97135H25.4999C34.5448 7.97135 41.2228 13.804 41.2228 21.75Z" fill="#F9F5F2"/>
<path d="M53.2553 31.302C53.2553 48.8845 65.6814 62.0714 82.165 62.0714C99.0713 62.0714 111.244 49.3917 111.244 31.302C111.244 13.0432 99.0713 0.363525 82.165 0.363525C65.5969 0.363525 53.2553 13.4659 53.2553 31.302ZM60.0178 31.2175C60.0178 17.1007 69.3162 6.78791 82.165 6.78791C95.4364 6.78791 104.481 16.7626 104.481 31.2175C104.481 45.5878 95.3519 55.647 82.165 55.647C69.4008 55.647 60.0178 45.2497 60.0178 31.2175Z" fill="#F9F5F2"/>
<path d="M118.14 31.302C118.14 48.8845 130.566 62.0714 147.049 62.0714C163.956 62.0714 176.128 49.3917 176.128 31.302C176.128 13.0432 163.956 0.363525 147.049 0.363525C130.481 0.363525 118.14 13.4659 118.14 31.302ZM124.902 31.2175C124.902 17.1007 134.201 6.78791 147.049 6.78791C160.321 6.78791 169.366 16.7626 169.366 31.2175C169.366 45.5878 160.236 55.647 147.049 55.647C134.285 55.647 124.902 45.2497 124.902 31.2175Z" fill="#F9F5F2"/>
<path d="M192.576 13.1278L212.864 60.8035H219.035L239.237 13.2968V60.8035H246V1.63149H237.547L215.991 53.3647L194.351 1.63149H185.814V60.8035H192.576V13.1278Z" fill="#F9F5F2"/>
</svg>
