<svg width="535" height="213" viewBox="0 0 535 213" fill="none" xmlns="http://www.w3.org/2000/svg">
<path d="M0 47.1889C20.3903 46.6063 38.4502 42.5282 53.3059 34.3721V208.272H76.6091V4.36934H57.384C41.0718 16.8948 22.7206 23.8857 0 24.4683V47.1889Z" fill="#F9F5F2"/>
<path d="M111.841 139.236C111.841 181.473 143.883 212.641 188.451 212.641C232.435 212.641 264.768 182.638 264.768 139.236C264.768 96.1255 232.435 65.5401 188.451 65.5401C183.499 65.5401 178.838 65.8314 174.469 66.7053L218.453 4.36934H190.781L128.154 92.0474C117.376 107.486 111.841 122.924 111.841 139.236ZM135.145 139.236C135.145 109.525 157.574 87.6781 188.451 87.6781C219.327 87.6781 241.465 108.942 241.465 139.236C241.465 169.822 219.618 190.503 188.451 190.503C157.865 190.503 135.145 168.657 135.145 139.236Z" fill="#F9F5F2"/>
<path d="M271.946 47.1889C292.336 46.6063 310.396 42.5282 325.252 34.3721V208.272H348.555V4.36934H329.33C313.018 16.8948 294.666 23.8857 271.946 24.4683V47.1889Z" fill="#F9F5F2"/>
<path d="M383.787 154.383C383.787 187.59 415.538 212.641 458.94 212.641C502.342 212.641 534.675 189.047 534.675 154.383C534.675 131.663 518.072 113.894 496.516 104.282C513.994 94.0864 526.228 77.1917 526.228 56.5101C526.228 22.7206 497.39 0 458.94 0C420.49 0 392.235 24.177 392.235 56.5101C392.235 76.3178 404.76 93.7952 422.82 104.282C400.973 114.185 383.787 132.537 383.787 154.383ZM413.499 58.2579C413.499 36.9938 432.724 20.9728 458.649 20.9728C486.03 20.9728 504.672 36.4112 504.672 58.2579C504.672 79.522 484.282 96.1255 458.649 96.1255C434.472 96.1255 413.499 78.6481 413.499 58.2579ZM407.09 152.927C407.09 132.245 431.267 113.894 458.94 113.894C487.486 113.894 511.372 131.371 511.372 152.927C511.372 175.356 490.108 191.377 458.94 191.377C429.228 191.377 407.09 175.356 407.09 152.927Z" fill="#F9F5F2"/>
</svg>
